# xmcd CD database file
#
# Track frame offsets:
#	150
#	10734
#	19857
#	28643
#	39222
#	50196
#	59809
#	69711
#	81174
#	92435
#	104768
#	115175
#	129443
#	138919
#	149315
#	159059
#	169236
#	181893
#	192963
#	202336
#	214650
#	226789
#	237788
#	249181
#	259526
#	269001
#	280890
#	299492
#	311427
#	320637
#	333077
#	348616
#
# Disc length: 4875 seconds
#
# Revision: 2
# Processed by: cddbd v1.4b41PL1 Copyright (c) Steve Scherf et al.
# Submitted via: Feurio! 1.50.2ß - http://www.feurio.com
#
DISCID=d9130920
DTITLE=Various Artist - Beatles I
DYEAR=1900
DGENRE=
TTITLE0=??? - 
TTITLE1=??? - Track: 2
TTITLE2=??? - Track: 3
TTITLE3=??? - Track: 4
TTITLE4=??? - Track: 5
TTITLE5=??? - Track: 6
TTITLE6=??? - Track: 7
TTITLE7=??? - Track: 8
TTITLE8=??? - Track: 9
TTITLE9=??? - Track: 10
TTITLE10=??? - Track: 11
TTITLE11=??? - Track: 12
TTITLE12=??? - Track: 13
TTITLE13=??? - Track: 1
TTITLE14=??? - Track: 2
TTITLE15=??? - Track: 3
TTITLE16=??? - Track: 4
TTITLE17=??? - Track: 5
TTITLE18=??? - Track: 6
TTITLE19=??? - Track: 7
TTITLE20=??? - Track: 8
TTITLE21=??? - Track: 9
TTITLE22=??? - Track: 10
TTITLE23=??? - Track: 11
TTITLE24=??? - Track: 12
TTITLE25=??? - Track: 13
TTITLE26=??? - Track: 1
TTITLE27=??? - Track: 2
TTITLE28=??? - Track: 3
TTITLE29=??? - Track: 4
TTITLE30=??? - Track: 5
TTITLE31=??? - Track: 7
EXTD=
EXTT0=
EXTT1=
EXTT2=
EXTT3=
EXTT4=
EXTT5=
EXTT6=
EXTT7=
EXTT8=
EXTT9=
EXTT10=
EXTT11=
EXTT12=
EXTT13=
EXTT14=
EXTT15=
EXTT16=
EXTT17=
EXTT18=
EXTT19=
EXTT20=
EXTT21=
EXTT22=
EXTT23=
EXTT24=
EXTT25=
EXTT26=
EXTT27=
EXTT28=
EXTT29=
EXTT30=
EXTT31=
PLAYORDER=
